<svg xmlns="http://www.w3.org/2000/svg" xmlns:xlink="http://www.w3.org/1999/xlink" width="500" zoomAndPan="magnify" viewBox="0 0 375 374.999991" height="500" preserveAspectRatio="xMidYMid meet" version="1.0"><defs><g/></defs><g fill="#000000" fill-opacity="1"><g transform="translate(123.61935, 257.249983)"><g><path d="M 21.34375 22.40625 L 8.046875 9.09375 C 5.242188 7.925781 2.910156 6 1.046875 3.3125 C -0.816406 0.632812 -1.75 -2.21875 -1.75 -5.25 L -1.75 -149.453125 C -1.75 -157.617188 1.109375 -164.5 6.828125 -170.09375 C 12.546875 -175.695312 19.367188 -178.5 27.296875 -178.5 L 119 -178.5 C 122.269531 -178.5 125.1875 -177.503906 127.75 -175.515625 C 130.3125 -173.535156 132.175781 -171.144531 133.34375 -168.34375 L 146.65625 -155.40625 C 149.6875 -152.363281 151.203125 -148.976562 151.203125 -145.25 L 151.203125 -122.5 C 151.203125 -118.769531 149.742188 -115.382812 146.828125 -112.34375 C 143.910156 -109.3125 140.46875 -107.796875 136.5 -107.796875 L 108.5 -107.796875 C 110.363281 -105.929688 111.644531 -103.945312 112.34375 -101.84375 L 125.65625 -88.90625 C 128.6875 -85.863281 130.203125 -82.476562 130.203125 -78.75 L 130.203125 -54.25 C 130.203125 -50.519531 128.742188 -47.132812 125.828125 -44.09375 C 122.910156 -41.0625 119.46875 -39.546875 115.5 -39.546875 L 89.953125 -39.546875 L 82.953125 -40.59375 L 82.953125 12.25 C 82.953125 15.976562 81.492188 19.359375 78.578125 22.390625 C 75.660156 25.429688 72.21875 26.953125 68.25 26.953125 L 31.5 26.953125 C 27.769531 26.953125 24.382812 25.4375 21.34375 22.40625 Z M 21.34375 22.40625 "/></g></g></g></svg>